<?xml version="1.0" encoding="utf-8"?>
<!-- Generator: Adobe Illustrator 25.2.1, SVG Export Plug-In . SVG Version: 6.00 Build 0)  -->
<svg version="1.1" id="Layer_1" xmlns="http://www.w3.org/2000/svg" xmlns:xlink="http://www.w3.org/1999/xlink" x="0px" y="0px"
	 viewBox="0 0 415.36 93.22" style="enable-background:new 0 0 415.36 93.22;" xml:space="preserve">
<style type="text/css">
	.st0{fill:#0B2132;}
	.st1{fill:#FFFFFF;}
	.st2{fill:#2296F3;}
</style>
<rect y="67.32" class="st0" width="415.63" height="25.9"/>
<g>
	<path class="st1" d="M22.46,76.97c-0.1-0.1-0.28-0.23-0.54-0.4c-0.26-0.17-0.58-0.34-0.95-0.5c-0.37-0.16-0.78-0.3-1.22-0.41
		c-0.44-0.11-0.88-0.17-1.34-0.17c-0.81,0-1.41,0.15-1.8,0.45c-0.4,0.3-0.59,0.71-0.59,1.25c0,0.31,0.07,0.57,0.22,0.77
		c0.15,0.21,0.36,0.39,0.65,0.54c0.28,0.16,0.64,0.3,1.07,0.42c0.43,0.13,0.93,0.26,1.5,0.4c0.74,0.2,1.4,0.41,2.01,0.64
		c0.6,0.23,1.11,0.51,1.53,0.85c0.42,0.34,0.74,0.75,0.97,1.22c0.23,0.47,0.34,1.06,0.34,1.75c0,0.81-0.15,1.5-0.46,2.07
		c-0.3,0.57-0.71,1.04-1.23,1.39c-0.52,0.35-1.11,0.61-1.78,0.77c-0.67,0.16-1.38,0.24-2.11,0.24c-1.13,0-2.25-0.17-3.35-0.51
		c-1.1-0.34-2.09-0.82-2.97-1.44l1.29-2.52c0.13,0.13,0.36,0.29,0.69,0.5c0.33,0.2,0.72,0.41,1.18,0.61
		c0.45,0.21,0.95,0.38,1.51,0.52c0.55,0.14,1.12,0.21,1.7,0.21c1.61,0,2.42-0.52,2.42-1.55c0-0.33-0.09-0.6-0.28-0.83
		c-0.18-0.23-0.45-0.42-0.79-0.59c-0.34-0.17-0.75-0.33-1.23-0.47c-0.48-0.14-1.02-0.3-1.61-0.47c-0.72-0.2-1.35-0.41-1.88-0.65
		c-0.53-0.23-0.97-0.51-1.33-0.83c-0.35-0.32-0.62-0.69-0.8-1.1c-0.18-0.42-0.27-0.92-0.27-1.5c0-0.76,0.14-1.44,0.42-2.04
		c0.28-0.59,0.68-1.09,1.18-1.49c0.5-0.4,1.09-0.7,1.75-0.9c0.66-0.2,1.38-0.31,2.14-0.31c1.06,0,2.04,0.17,2.93,0.5
		c0.89,0.33,1.67,0.72,2.33,1.18L22.46,76.97z"/>
	<path class="st1" d="M28.61,88.09V73.03h2.93v15.06H28.61z"/>
	<path class="st1" d="M49.08,88.09v-9.97l-3.88,7.43h-1.59l-3.88-7.43v9.97H36.8V73.03h3.14l4.46,8.57l4.5-8.57h3.12v15.06H49.08z"
		/>
	<path class="st1" d="M57.27,88.09V73.03h6.39c0.69,0,1.33,0.14,1.92,0.43c0.59,0.29,1.09,0.67,1.52,1.15
		c0.42,0.47,0.76,1.01,1,1.61c0.24,0.6,0.36,1.21,0.36,1.81c0,0.64-0.11,1.25-0.34,1.86c-0.23,0.6-0.54,1.14-0.95,1.6
		c-0.41,0.47-0.91,0.84-1.49,1.12c-0.58,0.28-1.22,0.42-1.91,0.42H60.2v5.05H57.27z M60.2,80.47h3.39c0.54,0,0.99-0.22,1.35-0.66
		c0.36-0.44,0.54-1.03,0.54-1.78c0-0.38-0.06-0.72-0.17-1.03c-0.11-0.3-0.26-0.56-0.45-0.77c-0.18-0.21-0.4-0.37-0.65-0.48
		c-0.25-0.11-0.5-0.16-0.75-0.16H60.2V80.47z"/>
	<path class="st1" d="M72.61,88.09V73.03h2.93v12.5h7.68v2.57H72.61z"/>
	<path class="st1" d="M97.58,85.52v2.57H87.12V73.03h10.27v2.57h-7.34v3.63h6.34v2.38h-6.34v3.93H97.58z"/>
	<path class="st1" d="M101.66,88.09v-3.05h2.33v3.05H101.66z"/>
	<path class="st1" d="M125.08,76.97c-0.1-0.1-0.28-0.23-0.54-0.4c-0.26-0.17-0.58-0.34-0.95-0.5c-0.37-0.16-0.78-0.3-1.22-0.41
		c-0.44-0.11-0.88-0.17-1.34-0.17c-0.81,0-1.41,0.15-1.8,0.45c-0.4,0.3-0.59,0.71-0.59,1.25c0,0.31,0.07,0.57,0.22,0.77
		c0.15,0.21,0.36,0.39,0.65,0.54c0.28,0.16,0.64,0.3,1.07,0.42c0.43,0.13,0.93,0.26,1.5,0.4c0.74,0.2,1.4,0.41,2.01,0.64
		c0.6,0.23,1.11,0.51,1.53,0.85c0.42,0.34,0.74,0.75,0.97,1.22c0.23,0.47,0.34,1.06,0.34,1.75c0,0.81-0.15,1.5-0.46,2.07
		c-0.3,0.57-0.71,1.04-1.23,1.39c-0.52,0.35-1.11,0.61-1.78,0.77c-0.67,0.16-1.38,0.24-2.11,0.24c-1.13,0-2.25-0.17-3.35-0.51
		c-1.1-0.34-2.09-0.82-2.97-1.44l1.29-2.52c0.13,0.13,0.36,0.29,0.69,0.5c0.33,0.2,0.72,0.41,1.18,0.61
		c0.45,0.21,0.95,0.38,1.51,0.52c0.55,0.14,1.12,0.21,1.7,0.21c1.61,0,2.42-0.52,2.42-1.55c0-0.33-0.09-0.6-0.28-0.83
		c-0.18-0.23-0.45-0.42-0.79-0.59c-0.34-0.17-0.75-0.33-1.23-0.47c-0.48-0.14-1.02-0.3-1.61-0.47c-0.72-0.2-1.35-0.41-1.88-0.65
		c-0.53-0.23-0.97-0.51-1.33-0.83c-0.35-0.32-0.62-0.69-0.8-1.1c-0.18-0.42-0.27-0.92-0.27-1.5c0-0.76,0.14-1.44,0.42-2.04
		c0.28-0.59,0.68-1.09,1.18-1.49c0.5-0.4,1.09-0.7,1.75-0.9c0.66-0.2,1.38-0.31,2.14-0.31c1.06,0,2.04,0.17,2.93,0.5
		c0.89,0.33,1.67,0.72,2.33,1.18L125.08,76.97z"/>
	<path class="st1" d="M141.69,85.52v2.57h-10.46V73.03h10.27v2.57h-7.34v3.63h6.34v2.38h-6.34v3.93H141.69z"/>
	<path class="st1" d="M144.87,80.45c0-0.92,0.17-1.83,0.5-2.73c0.33-0.9,0.82-1.7,1.45-2.41c0.64-0.71,1.41-1.28,2.33-1.72
		c0.92-0.44,1.97-0.66,3.14-0.66c1.39,0,2.58,0.3,3.6,0.91c1.01,0.61,1.76,1.4,2.26,2.38l-2.25,1.55c-0.2-0.42-0.44-0.78-0.72-1.07
		c-0.28-0.29-0.59-0.52-0.91-0.69c-0.33-0.17-0.66-0.29-1.02-0.37c-0.35-0.08-0.7-0.12-1.04-0.12c-0.74,0-1.38,0.15-1.92,0.45
		s-1,0.68-1.36,1.16c-0.36,0.47-0.63,1.01-0.82,1.61c-0.18,0.6-0.28,1.2-0.28,1.79c0,0.66,0.11,1.3,0.32,1.92
		c0.21,0.62,0.51,1.16,0.9,1.62s0.86,0.84,1.4,1.12c0.54,0.28,1.14,0.42,1.79,0.42c0.34,0,0.69-0.04,1.06-0.13
		c0.37-0.08,0.72-0.22,1.05-0.4c0.33-0.18,0.64-0.42,0.92-0.71c0.28-0.29,0.51-0.64,0.68-1.05l2.4,1.38
		c-0.24,0.57-0.58,1.06-1.03,1.5c-0.45,0.43-0.95,0.8-1.51,1.09c-0.56,0.3-1.16,0.52-1.79,0.68c-0.64,0.16-1.26,0.23-1.87,0.23
		c-1.08,0-2.06-0.23-2.95-0.68c-0.89-0.45-1.66-1.04-2.3-1.77c-0.64-0.73-1.15-1.56-1.51-2.48
		C145.05,82.36,144.87,81.41,144.87,80.45z"/>
	<path class="st1" d="M168.83,85.61c0.69,0,1.28-0.14,1.75-0.42c0.47-0.28,0.86-0.65,1.15-1.1c0.29-0.45,0.5-0.97,0.62-1.56
		c0.12-0.59,0.18-1.19,0.18-1.81v-7.68h2.91v7.68c0,1.03-0.12,2-0.37,2.91c-0.25,0.91-0.64,1.7-1.17,2.38
		c-0.53,0.68-1.21,1.22-2.05,1.61c-0.83,0.4-1.83,0.59-2.99,0.59c-1.2,0-2.22-0.21-3.07-0.63c-0.84-0.42-1.52-0.97-2.05-1.66
		c-0.52-0.69-0.9-1.48-1.14-2.39c-0.23-0.91-0.35-1.85-0.35-2.82v-7.68h2.93v7.68c0,0.64,0.06,1.25,0.18,1.83
		c0.12,0.59,0.33,1.11,0.62,1.56c0.29,0.45,0.67,0.82,1.14,1.09C167.58,85.47,168.15,85.61,168.83,85.61z"/>
	<path class="st1" d="M180.5,88.09V73.03h6.66c0.69,0,1.33,0.14,1.92,0.43c0.59,0.29,1.09,0.67,1.52,1.15
		c0.42,0.47,0.76,1.01,1,1.61c0.24,0.6,0.36,1.21,0.36,1.81c0,0.98-0.24,1.86-0.73,2.66c-0.49,0.8-1.15,1.38-1.98,1.73l3.44,5.66
		h-3.29l-3.08-5.05h-2.89v5.05H180.5z M183.43,80.47h3.67c0.27,0,0.52-0.06,0.75-0.19c0.23-0.13,0.44-0.3,0.61-0.52
		c0.17-0.22,0.3-0.48,0.4-0.77c0.1-0.3,0.15-0.62,0.15-0.95c0-0.35-0.06-0.68-0.17-0.98c-0.11-0.3-0.27-0.55-0.46-0.77
		c-0.19-0.22-0.41-0.39-0.66-0.51c-0.25-0.12-0.5-0.18-0.75-0.18h-3.54V80.47z"/>
	<path class="st1" d="M207.19,85.52v2.57h-10.46V73.03H207v2.57h-7.34v3.63H206v2.38h-6.34v3.93H207.19z"/>
	<path class="st1" d="M211.26,88.09v-3.05h2.33v3.05H211.26z"/>
	<path class="st1" d="M236.38,75.59h-4.82v12.5h-2.91v-12.5h-4.82v-2.57h12.54V75.59z"/>
	<path class="st1" d="M240.37,88.09V73.03h6.66c0.69,0,1.33,0.14,1.92,0.43c0.59,0.29,1.09,0.67,1.52,1.15
		c0.42,0.47,0.76,1.01,1,1.61c0.24,0.6,0.36,1.21,0.36,1.81c0,0.98-0.24,1.86-0.73,2.66c-0.49,0.8-1.15,1.38-1.98,1.73l3.44,5.66
		h-3.29l-3.08-5.05h-2.89v5.05H240.37z M243.3,80.47h3.67c0.27,0,0.52-0.06,0.75-0.19c0.23-0.13,0.44-0.3,0.61-0.52
		c0.17-0.22,0.3-0.48,0.4-0.77c0.1-0.3,0.15-0.62,0.15-0.95c0-0.35-0.06-0.68-0.17-0.98c-0.11-0.3-0.27-0.55-0.46-0.77
		c-0.19-0.22-0.41-0.39-0.66-0.51c-0.25-0.12-0.5-0.18-0.75-0.18h-3.54V80.47z"/>
	<path class="st1" d="M260.65,73.03h2.59l5.73,15.06h-3.01l-1.4-3.76h-5.26l-1.38,3.76h-3.01L260.65,73.03z M264.02,82.28
		l-2.08-5.92l-2.16,5.92H264.02z"/>
	<path class="st1" d="M275.67,78.44v9.65h-2.93V73.03h2.27l7.85,9.89v-9.87h2.93v15.04h-2.38L275.67,78.44z"/>
	<path class="st1" d="M300.03,76.97c-0.1-0.1-0.28-0.23-0.54-0.4c-0.26-0.17-0.58-0.34-0.95-0.5c-0.38-0.16-0.78-0.3-1.22-0.41
		c-0.44-0.11-0.88-0.17-1.34-0.17c-0.81,0-1.41,0.15-1.8,0.45c-0.4,0.3-0.59,0.71-0.59,1.25c0,0.31,0.07,0.57,0.22,0.77
		c0.15,0.21,0.36,0.39,0.65,0.54c0.28,0.16,0.64,0.3,1.07,0.42c0.43,0.13,0.93,0.26,1.5,0.4c0.73,0.2,1.4,0.41,2,0.64
		c0.6,0.23,1.11,0.51,1.53,0.85c0.42,0.34,0.74,0.75,0.97,1.22s0.34,1.06,0.34,1.75c0,0.81-0.15,1.5-0.46,2.07
		c-0.3,0.57-0.71,1.04-1.23,1.39c-0.52,0.35-1.11,0.61-1.78,0.77c-0.67,0.16-1.38,0.24-2.11,0.24c-1.13,0-2.25-0.17-3.35-0.51
		c-1.1-0.34-2.09-0.82-2.97-1.44l1.29-2.52c0.13,0.13,0.36,0.29,0.69,0.5c0.33,0.2,0.72,0.41,1.18,0.61
		c0.45,0.21,0.95,0.38,1.51,0.52c0.55,0.14,1.12,0.21,1.7,0.21c1.61,0,2.42-0.52,2.42-1.55c0-0.33-0.09-0.6-0.28-0.83
		c-0.18-0.23-0.45-0.42-0.78-0.59c-0.34-0.17-0.75-0.33-1.23-0.47c-0.48-0.14-1.02-0.3-1.61-0.47c-0.72-0.2-1.35-0.41-1.88-0.65
		c-0.53-0.23-0.97-0.51-1.33-0.83c-0.35-0.32-0.62-0.69-0.8-1.1c-0.18-0.42-0.27-0.92-0.27-1.5c0-0.76,0.14-1.44,0.42-2.04
		c0.28-0.59,0.68-1.09,1.18-1.49c0.5-0.4,1.09-0.7,1.75-0.9c0.66-0.2,1.38-0.31,2.14-0.31c1.06,0,2.04,0.17,2.93,0.5
		c0.89,0.33,1.67,0.72,2.33,1.18L300.03,76.97z"/>
	<path class="st1" d="M306.18,88.09V73.03h6.39c0.69,0,1.33,0.14,1.92,0.43c0.59,0.29,1.09,0.67,1.52,1.15
		c0.42,0.47,0.76,1.01,1,1.61c0.24,0.6,0.36,1.21,0.36,1.81c0,0.64-0.11,1.25-0.34,1.86c-0.23,0.6-0.54,1.14-0.95,1.6
		s-0.91,0.84-1.49,1.12c-0.58,0.28-1.22,0.42-1.91,0.42h-3.56v5.05H306.18z M309.11,80.47h3.39c0.54,0,0.99-0.22,1.35-0.66
		c0.36-0.44,0.54-1.03,0.54-1.78c0-0.38-0.06-0.72-0.17-1.03c-0.11-0.3-0.26-0.56-0.45-0.77c-0.18-0.21-0.4-0.37-0.65-0.48
		c-0.25-0.11-0.5-0.16-0.75-0.16h-3.27V80.47z"/>
	<path class="st1" d="M324.85,73.03h2.59l5.73,15.06h-3.01l-1.4-3.76h-5.26l-1.38,3.76h-3.01L324.85,73.03z M328.23,82.28
		l-2.08-5.92l-2.16,5.92H328.23z"/>
	<path class="st1" d="M336.95,88.09V73.03h6.66c0.69,0,1.33,0.14,1.92,0.43c0.59,0.29,1.09,0.67,1.52,1.15
		c0.42,0.47,0.76,1.01,1,1.61c0.24,0.6,0.36,1.21,0.36,1.81c0,0.98-0.24,1.86-0.73,2.66c-0.49,0.8-1.15,1.38-1.98,1.73l3.44,5.66
		h-3.29l-3.08-5.05h-2.89v5.05H336.95z M339.87,80.47h3.67c0.27,0,0.52-0.06,0.75-0.19c0.23-0.13,0.44-0.3,0.61-0.52
		c0.17-0.22,0.3-0.48,0.4-0.77c0.1-0.3,0.15-0.62,0.15-0.95c0-0.35-0.06-0.68-0.17-0.98c-0.11-0.3-0.27-0.55-0.46-0.77
		c-0.19-0.22-0.41-0.39-0.66-0.51c-0.25-0.12-0.5-0.18-0.75-0.18h-3.54V80.47z"/>
	<path class="st1" d="M363.63,85.52v2.57h-10.46V73.03h10.27v2.57h-7.34v3.63h6.34v2.38h-6.34v3.93H363.63z"/>
	<path class="st1" d="M370.98,78.44v9.65h-2.93V73.03h2.27l7.85,9.89v-9.87h2.93v15.04h-2.38L370.98,78.44z"/>
	<path class="st1" d="M397.62,75.59h-4.82v12.5h-2.91v-12.5h-4.82v-2.57h12.54V75.59z"/>
	<path class="st1" d="M399.74,88.09v-3.05h2.33v3.05H399.74z"/>
</g>
<path class="st0" d="M34.6,48.52c0,3.25-2.15,4.88-6.44,4.88H0V0h27.98c4.17,0,6.26,1.64,6.26,4.91v13.75
	c0,1.82-0.75,3.23-2.25,4.23c-0.21,0.14-2.04,1.01-5.5,2.63c3.57,1.66,5.47,2.57,5.68,2.73c1.62,1.07,2.43,2.54,2.43,4.4V48.52z
	 M23.74,19.65V6.72h-13.2v15.66h8.11L23.74,19.65z M24.01,46.68V31.46l-5.18-2.59h-8.29v17.81H24.01z"/>
<path class="st0" d="M52.84,13.99H42.53V5.94h10.32V13.99z M52.75,53.4H42.62V18.94h10.14V53.4z"/>
<path class="st0" d="M90.6,53.4H80.32v-1.19c-6.97,0.93-10.87,1.4-11.71,1.4c-2.58,0-4.61-0.57-6.08-1.72
	c-1.47-1.15-2.21-2.71-2.21-4.69V25.86c0-2.8,1.32-4.74,3.96-5.83c1.92-0.82,4.83-1.23,8.74-1.23c0.87,0,2.13,0.02,3.78,0.07
	c1.65,0.05,2.82,0.07,3.51,0.07V0H90.6V53.4z M80.32,46.68V25.46h-6.35c-2.28,0-3.42,0.86-3.42,2.59v16.48
	c0,1.68,1.08,2.52,3.24,2.52C74.3,47.05,76.48,46.93,80.32,46.68z"/>
<path class="st2" d="M133.3,48.52c0,3.25-2.15,4.88-6.44,4.88h-21.98c-4.17,0-6.26-1.63-6.26-4.88V4.91c0-3.28,2.09-4.91,6.26-4.91
	h21.98c4.29,0,6.44,1.64,6.44,4.91V17.4h-10.5V6.86h-13.65v39.68h13.65V35.32h10.5V48.52z"/>
<path class="st2" d="M176.87,48.52c0,3.25-2.16,4.88-6.49,4.88h-22.39c-4.26,0-6.4-1.63-6.4-4.88V0h10.54v46.54h14.19V0h10.54V48.52
	z"/>
<path class="st2" d="M221.42,53.4h-10.99l-11.62-24.81v-4.81h10.36V6.86h-13.29V53.4h-10.54V0h27.98c4.23,0,6.35,1.64,6.35,4.91
	v19.42c0,2.25-1.01,3.71-3.02,4.37c-1.08,0.34-3.36,0.51-6.85,0.51L221.42,53.4z"/>
<path class="st2" d="M257.1,53.4h-29.24V0h28.97v7.06H238.4v15.59h15.86v6.93H238.4v16.75h18.7V53.4z"/>
<path class="st0" d="M313.95,53.4h-10.23V25.46l-9.69,0.14V53.4h-10.27V25.46l-9.69,0.14V53.4h-10.32V18.94h10.32v1.26
	c2.4-0.3,4.79-0.59,7.16-0.89c2.91-0.34,5.33-0.51,7.25-0.51c2.37,0,3.9,0.51,4.6,1.54c2.52-0.3,5.05-0.6,7.57-0.92
	c3.33-0.41,5.89-0.61,7.66-0.61c3.75,0,5.63,1.4,5.63,4.2V53.4z"/>
<path class="st0" d="M350.76,49.14c0,2.84-1.94,4.27-5.81,4.27h-17.79c-3.87,0-5.81-1.42-5.81-4.27V23.2c0-2.84,1.94-4.27,5.81-4.27
	h17.79c3.87,0,5.81,1.42,5.81,4.27v12.66l-2.84,2.15h-16.71v9.66h9.69v-5.73h9.87V49.14z M340.89,32.93v-8.26h-9.69v8.26H340.89z"/>
<path class="st0" d="M388.6,53.4h-10.36V25.46l-9.69,0.14V53.4h-10.32V18.94h10.32v1.26c2.4-0.3,4.79-0.58,7.16-0.85
	c2.94-0.36,5.36-0.55,7.25-0.55c3.75,0,5.63,1.4,5.63,4.2V53.4z"/>
<path class="st0" d="M415.63,53.4h-11.44c-3.81,0-5.72-1.42-5.72-4.27V25.59h-4.87v-6.65h4.87V9.59h10.27v9.35h6.62v6.65h-6.62
	v21.16h6.89V53.4z"/>
</svg>
