<?xml version="1.0" encoding="utf-8"?>
<!-- Generator: Adobe Illustrator 25.2.1, SVG Export Plug-In . SVG Version: 6.00 Build 0)  -->
<svg version="1.1" id="Layer_1" xmlns="http://www.w3.org/2000/svg" xmlns:xlink="http://www.w3.org/1999/xlink" x="0px" y="0px"
	 viewBox="0 0 607.25 316.33" style="enable-background:new 0 0 607.25 316.33;" xml:space="preserve">
<style type="text/css">
	.st0{opacity:0.3;}
	.st1{fill:#FFFFFF;}
	.st2{fill:#0B2132;}
	.st3{fill:#2296F3;}
</style>
<g>
	<g>
		<g class="st0">
			<path class="st1" d="M344.28,220.9c-2.49,0.46-4.53,1.18-6.56,1.16c-7.85-0.06-15.69-0.48-23.54-0.5
				c-6.37-0.01-12.75,0.52-19.12,0.53c-34.47,0.05-68.94,0.01-103.41,0c-1.45,0-2.89,0-4.57-0.81c1.1-0.57,2.19-1.14,3.44-1.78
				c0-4.48,0-9.03,0-13.52c-3.42-1.12-16.57-1.36-22.9-0.38c-0.05,3.48-0.12,7.05-0.15,10.62c-0.03,3.61,0.11,7.23-0.04,10.83
				c-0.15,3.49,0.67,7.06-0.97,10.47c-0.67-5.17-0.5-10.36-0.53-15.54c-0.03-5.25-0.01-10.49-0.01-15.89
				c-0.93-0.62-1.81-1.21-2.88-1.92c1.54-1.09,2.84-2,4.24-3c0.47,0.57,0.93,1.14,1.48,1.81c4.14,0,8.36,0,13.18,0
				c0.36-11.23,0.12-22.27,0.16-33.64c-4.75,0-9.09,0-13.91,0c-0.71,6.9,0.1,13.84-0.45,20.86c-2.34-1.04-1.69-2.9-1.7-4.42
				c-0.06-8.37-0.02-16.74-0.04-25.11c0-1.6-0.13-3.2-0.21-5.11c-3.85,0-7.37,0-11.23,0c-0.91,4.99-0.28,10.04-0.39,15.05
				c-0.12,5.25-0.03,10.5-0.03,15.76c0,5.08,0,10.17,0,14.99c-1.64,3.09-4.12,3.78-7.14,3.74c-7.53-0.1-15.07-0.03-22.52-0.03
				c-1.03,3.74-1.14,9.5-0.31,14.98c2.1,0.18,4.28,0.36,6.45,0.54c0.03,0.3,0.06,0.6,0.08,0.89c-0.95,0.21-1.89,0.61-2.84,0.61
				c-9.19,0.04-18.38,0.02-27.58,0.02c-9.68,0-19.37,0-29.05,0c-1.61,0-3.21,0-5.38,0c0,12.16,0,23.91,0,35.66
				c-0.36,0.02-0.73,0.05-1.09,0.07c-0.27-2.2-0.75-4.39-0.77-6.59c-0.09-11.82-0.07-23.63-0.08-35.45
				c-0.01-21.34-0.02-42.68-0.02-64.02c0-1.77,0-3.54,0-5.4c-1.86-0.34-3.25-0.6-5.05-0.94c0-6.15,0-12.16,0-18.36
				c-4.92-0.88-9.43-0.21-14.48-0.47c-0.33,6.4,0,12.43-0.22,18.71c-1.61,0.37-3.11,0.72-4.82,1.12c0,24.66,0,49.24,0,74.17
				c1.22,0.38,2.64,0.81,4.41,1.36c-3.31,1.3-11.47,1.54-18.55,0.61c-0.45-6.7,0.01-13.54-0.25-20.26c-1.26-1.34-2.44-2.58-3.77-4
				c-5.04,0-10.28,0-15.55,0c-1.96-0.05-2.99,2.38-3.82,3.51c0,25.58,0,51.16,0,76.66c0.21,0.2,0.32,0.32,0.44,0.43
				c0.12,0.1,0.26,0.24,0.39,0.24c200.26,0.04,400.51,0.08,600.77,0.09c0.46,0,0.92-0.22,1.63-0.4c0-17.65,0-35.28,0-53.48
				c-7.97-0.33-15.8,0.01-23.9-0.2c-1-4.3-0.34-8.54-0.45-12.72c-0.12-4.26-0.03-8.53-0.03-12.8c0-4.43,0-8.86,0-13.3
				c0-4.27,0-8.54,0-12.8c0-4.24,0-8.47,0-13.06c-4.08-0.64-7.82-0.24-11.53-0.31c-3.75-0.07-7.51-0.02-11.74-0.02
				c-0.6,5.27-0.2,10.31-0.27,15.32c-0.07,5.25-0.02,10.51-0.02,15.76c0,5.08,0,10.16,0,15.83c-3.83,0.16-7.48,0.32-11.35,0.48
				c0,4.25,0,8.11,0,12.57c5.79,0.13,11.53,0.26,17.27,0.39c-1.15,2.05-2.78,1.63-4.23,1.63c-17.4,0.03-34.8,0.01-52.2,0.01
				c-4.76,0-9.52,0.04-14.28,0.03c-1.59,0-3.19-0.08-5.66-0.16c2.41-2.74,5.01-1.06,7.46-2.41c0.05-19.11,0.01-38.54,0.03-58.46
				c-3.62-0.05-6.85-0.11-10.07-0.13c-3.28-0.02-6.55,0-9.72,0c-1.59,1.69-0.93,3.6-0.94,5.32c-0.05,16.58-0.01,33.16-0.02,49.74
				c0,1.56-0.07,3.12-0.12,5.2c-2.28-1.11-1.75-2.56-1.75-3.69c-0.03-14.28-0.02-28.56-0.03-42.84c0-4.76,0-9.51,0-14.4
				c0.94-0.64,1.84-1.24,2.7-1.83c0.74-13.18-1.27-26.39,2.31-39.54c4.75,0,9.42,0,14.22,0c3.8,13.16,1.61,26.52,2.45,39.67
				c0.93,0.55,1.74,1.03,2.83,1.67c0,19.76,0,39.58,0,59.71c2.54,0,4.75,0,7.55,0c0.19-6.27,0.07-12.47,0.08-18.66
				c0.02-6.22,0-12.44,0-18.62c3.66-0.9,35.04-1.1,41.71-0.24c0.04,3.63,0.1,7.34,0.12,11.06c0.02,3.75,0,7.51,0,11.46
				c3.27,1.12,6.26,0.41,9.71,0.5c0-15.79,0-31.15,0-46.38c3.88-1.02,20.23-1.23,26.74-0.39c0.17,1.29,0.51,2.69,0.51,4.1
				c0.03,18.71,0.03,37.43,0.01,56.14c0,1.29-0.13,2.57-0.23,4.44c8.22,0.86,16.36-0.1,24.97,0.61c0,15.67,0.15,31.06-0.04,46.44
				c-0.2,15.2,0.03,10.67,0.03,45.9c-202.05,0-404.99,0-607.18,0c0-38.64,0-77.16,0-115.76c1.08-1.14,2.24-2.37,3.72-3.94
				c6.09,0,12.62,0,19.24,0c1.06,1.18,2.2,2.44,3.82,4.24c0,6.23,0,13.08,0,20.09c3.58,0,6.77,0,10.31,0c0-25.48,0-50.7,0-76.19
				c1.81-0.36,3.33-0.66,5.29-1.05c0-5.96,0-11.96,0-17.83c4.01-1.12,13.41-1.2,18.29-0.17c0,5.89,0,11.9,0,18.11
				c1.84,0.23,3.24,0.41,5.06,0.64c0,15.04,0,29.9,0,45.28c3.31,0.08,6.2,0.17,9.08,0.2c2.94,0.03,5.88,0.01,9.4,0.01
				c0-6.83,0-13.31,0-20.2c11.63-0.38,22.68-0.13,34.12-0.21c0,17.08,0,33.59,0,50.38c1.27,0,2.13,0,3.48,0c0-5.54,0-10.89,0-16.43
				c2.17-0.23,3.89-0.41,5.9-0.63c0-14.46,0-28.69,0-43.6c1.87,1.19,3.23,2.06,5.04,3.22c0.38-1.88,0.69-3.38,1.14-5.58
				c4.3,3.64,8.33,7.05,12.64,10.7c0,4.25,0,8.65,0,13.55c1.85,0.15,3.37,0.28,5.44,0.45c0.6-9.55-0.08-18.67,0.4-28.03
				c5.1,0,9.92,0,15.17,0c0,4.41,0,8.61,0,13.05c5.06,0.77,9.72,0.33,14.69,0.36c0-11.85,0-23.3,0-34.96
				c1.2-0.43,2.22-0.79,3.58-1.27c0.69-1.91,1.45-4.03,2.3-6.41c2.16,0,4.23,0,6.72,0c0.71,1.98,1.47,4.09,2.28,6.37
				c1.01,0.33,2.06,0.68,3.6,1.19c0,16,0,32.17,0,48.6c7.61,0,14.73,0,22.29,0c0-28.77,0-57.26,0-86.31
				c6.6-0.16,12.79-0.06,18.97-0.08c6.22-0.02,12.44,0,19.13,0c0.51-8.98,1.03-17.6,1.48-26.23c0.44-8.48,0.81-16.96,1.23-25.71
				c2.43-0.2,4.51-0.36,7.15-0.57c0.09-1.75,0.26-3.48,0.26-5.22c0.02-10.51,0-21.01,0.02-31.52c0-1.58,0.13-3.17,1.14-4.81
				c0.14,1.14,0.39,2.28,0.39,3.42c0.03,11,0.01,22,0.03,32.99c0,1.6,0.14,3.21,0.22,5.08c4.69,0,9.05,0,13.96,0
				c0.34-4.55,0.12-9.1,0.16-13.63c0.04-4.76,0-9.52,0.01-14.28c0.01-4.53-0.07-9.06,0.06-13.58c0.38-0.03,0.76-0.05,1.14-0.08
				c0.18,1.15,0.5,2.3,0.5,3.45c0.03,11.65,0.01,23.31,0.01,34.96c0,0.95,0,1.9,0,3.15c2.21,0.2,4.1,0.38,6.54,0.6
				c2.01,33.63,3.61,67.16,5.29,100.94c2.48,0,4.55,0,6.92,0c1.61-3.7-0.22-8.09,1.48-11.99c1.28,1.92,0.77,4,0.86,5.98
				c0.09,1.93,0.02,3.86,0.02,6.28c4.18,0,7.86,0,12.1,0c0.09,12.87-0.02,25.25,0.07,37.9c2.96,0,5.32,0,8.03,0
				c0-20.73,0-41.2,0-61.84c1.57-0.53,2.88-0.97,4.3-1.45c0.11-2.17,0.22-4.27,0.34-6.62c1.15-0.43,2.32-0.87,3.81-1.43
				c0-4.4,0-8.78,0-13.17c0.27-0.06,0.54-0.11,0.8-0.17c0.31,0.73,0.86,1.45,0.88,2.19c0.09,3.6,0.04,7.21,0.04,11.07
				c1.2,0.5,2.33,0.97,3.69,1.54c0.14,2.18,0.28,4.42,0.43,6.77c1.25,0.29,2.33,0.54,3.69,0.86c0,33.86,0,67.74,0,101.75
				c-1.96-0.7-1.34-2.24-1.35-3.39c-0.05-10.34-0.04-20.68-0.04-31.02c0-21.82,0-43.63,0-65.65c-0.6-0.16-1.17-0.32-2.08-0.56
				c-0.97,4.93-0.27,9.65-0.39,14.33c-0.13,4.76-0.03,9.52-0.03,14.28c0,4.76,0,9.52,0,14.28s0,9.52,0,14.28c0,4.76,0,9.52,0,14.28
				c0,4.75-0.02,9.51-0.02,14.26C344.27,210.63,344.28,215.38,344.28,220.9z M265.68,44.01c-2.89,54.92-5.76,109.29-8.6,163.66
				c-0.2,3.76-0.17,7.54-0.23,11.31c0,0.15,0.09,0.31,0.18,0.43c0.09,0.13,0.24,0.22,0.77,0.69c2.51,0,5.45,0.09,8.37-0.03
				c3.05-0.12,6.17,0.58,9.33-0.65c-0.07-1.55-0.14-2.97-0.23-4.96c-2.48,0-4.74,0.14-6.98-0.04c-2.2-0.18-4.69,0.83-6.6-1.41
				c4.43-1.1,8.99-0.32,13.47-0.96c0-1.87,0-3.39,0-5.39c-2.59,0-4.87,0.11-7.13-0.03c-2.07-0.13-4.37,0.69-6.96-1.28
				c5.05-1.54,9.5-0.12,13.95-1.09c0.33-1.16,0.66-2.35,0.99-3.53c2.16-0.24,4.11-0.46,6.06-0.68c-0.02-0.35-0.04-0.7-0.06-1.04
				c-3.3-0.63-6.68-0.06-10.01-0.27c-3.28-0.2-6.66,0.66-9.87-1.07c3.19-1.36,6.56-0.82,9.84-0.94c3.39-0.12,6.77-0.12,10.25-0.17
				c0-1.92,0-3.31,0-5.28c-3.47,0-6.71,0.15-9.94-0.04c-3.21-0.2-6.63,0.91-9.64-1.38c4.08-1.33,8.26-0.81,12.38-0.92
				c4.38-0.12,8.77-0.11,13.34-0.16c0-1.91,0-3.29,0-4.98c-1.84-0.08-3.44-0.21-5.04-0.22c-5.91-0.02-11.82,0.03-17.73-0.05
				c-0.92-0.01-1.84-0.53-2.76-0.81c0.05-0.36,0.1-0.72,0.15-1.08c1.58-0.07,3.16-0.19,4.74-0.19c8.04-0.02,16.09,0.02,24.13-0.01
				c1.25,0,2.49-0.26,4.08-0.44c-0.1-1.91-0.19-3.45-0.28-5.26c-4.08,0-7.68,0-11.28,0c-3.61,0-7.23,0.13-10.83-0.04
				c-3.42-0.16-6.99,0.78-10.29-1.21c1.33-0.57,2.67-0.77,4.01-0.78c8.04-0.03,16.09,0,24.13-0.03c1.41-0.01,2.82-0.22,4.56-0.36
				c-0.1-2-0.17-3.56-0.26-5.48c-3.98,0-7.57,0-11.16,0c-3.45,0-6.9,0.12-10.34-0.03c-3.44-0.16-7,0.7-10.81-0.71
				c1.5-1.78,3.06-1.26,4.39-1.27c7.88-0.05,15.76-0.01,23.64-0.04c1.41-0.01,2.82-0.22,4.57-0.36c-0.12-2-0.22-3.54-0.33-5.26
				c-2.27,0-4.07,0-5.87,0c-7.71,0-15.43,0.02-23.14-0.02c-1.03,0-2.43,0.37-2.52-1.93c10.43-0.57,20.86,0.12,31.53-0.39
				c0-1.92,0-3.62,0-5.36c-0.76-0.05-1.24-0.11-1.71-0.11c-8.7,0-17.4,0.03-26.1,0c-1.13,0-2.66,0.49-3.24-1.97
				c5.29-0.04,10.32-0.08,15.35-0.1c5.19-0.02,10.39,0,15.79,0c0.14-2.31,0.26-4.24,0.38-6.19c1-0.57,1.94-1.11,2.77-1.58
				c-1.71-32.95-3.41-65.65-5.11-98.49C284.22,44.01,275.25,44.01,265.68,44.01z M225.35,96.25c-0.28,0.7-0.51,1-0.51,1.3
				c0,17.98,0.02,35.96,0.02,53.94c0,16.07-0.03,32.15-0.02,48.22c0,1.07,0.23,2.13,0.37,3.27c3.08,0.16,5.81,0.29,9.02,0.46
				c0,5.66,0,10.98,0,16.58c7.01,0.12,13.48,0.09,20.26,0.05c2.13-41.56,4.24-82.55,6.36-123.82
				C248.68,96.25,237.1,96.25,225.35,96.25z M86.63,171.47c-0.97,8.91-0.61,45.03,0.41,48.34c8.25,0.73,25.68,0.46,29.64-0.56
				c0-5.25,0-10.62,0-16c0-5.24,0.07-10.48-0.02-15.72c-0.09-5.31,0.41-10.66-0.36-16.06C106.15,171.47,96.54,171.47,86.63,171.47z
				 M505.51,183.92c0,12.14,0,23.87,0,35.53c5.1,0.98,34.37,0.82,38.03-0.21c0.03-11.67,0.06-23.4-0.02-35.32
				C530.66,183.92,518.4,183.92,505.51,183.92z M277.68,219.92c21.14,0,41.84,0,62.48,0c0.85-5.68,0.7-13.86-0.23-17.26
				c-8.57-0.84-58.98-0.45-62.25,0.53C277.68,208.52,277.68,213.89,277.68,219.92z M184.4,203.24c2.38-0.35,4.33,0.59,6.39-1.34
				c0-6.72,0-13.7,0-20.93c2.74-0.16,5.12-0.31,7.67-0.46c0-15.93,0-31.55,0-47.11c-4.49-0.9-9.89-0.86-14.06,0.09
				C184.4,156.41,184.4,179.41,184.4,203.24z M298.03,145.45c-0.03,12.16-0.29,23.84,0.12,35.43c6.06,0.93,18.54,0.75,21.97-0.21
				c0.88-5.53,0.65-31.83-0.34-35.22C312.8,145.45,305.78,145.45,298.03,145.45z M192.82,202.65c7.21,1.06,26.33,0.75,29.58-0.43
				c0-6.3,0-12.63,0-18.9c-4.54-0.91-25.68-0.86-29.58,0.07C192.82,189.69,192.82,196.03,192.82,202.65z M83.88,191.93
				c-6.19,0-11.84,0-17.44,0c-0.9,5.65-0.73,24.52,0.21,27.88c5.65,0,11.3,0,17.23,0C83.88,210.45,83.88,201.38,83.88,191.93z
				 M144.67,175.6c-4.84-4.12-9.39-8-14.14-12.05c-0.92,4.1-1.06,33.97-0.3,38.94c4.37,1.03,10.89,0.93,14.45-0.26
				C144.67,193.49,144.67,184.69,144.67,175.6z M333.54,191.71c-4.27-1.13-42.56-1-48.69,0.14c0,2.62,0,5.28,0,8.41
				c5.73,0,11.1,0,16.47,0c5.4,0,10.81,0.06,16.21-0.02c5.31-0.07,10.66,0.31,16-0.26C333.54,196.81,333.54,194.23,333.54,191.71z
				 M336.92,120.72c0,26.75,0,52.89,0,79.23c1.79,0,3.31,0,4.78,0c0.94-5.68,0.73-75.74-0.2-79.23
				C340.1,120.72,338.68,120.72,336.92,120.72z M222.51,205.8c-5.43-0.89-25.8-0.77-29.73,0.14c-0.11,4.58-0.55,9.21,0.24,13.77
				c8.26,0.91,26.15,0.59,29.48-0.53C222.51,214.83,222.51,210.44,222.51,205.8z M490.81,159.19c0-9.3,0-17.89,0-26.44
				c-5.1-0.82-10.59-0.73-14.24,0.21c0,8.57,0,17.16,0,26.01c1.2,0.08,2.15,0.2,3.1,0.2C483.25,159.2,486.83,159.19,490.81,159.19z
				 M291.17,188.22c6.09,1.08,35.14,0.88,36.4-0.51c-0.08-1.09-0.18-2.46-0.29-3.86c-12.23,0-24.07,0-36.12,0
				C291.17,185.53,291.17,186.9,291.17,188.22z M334.36,120.13c-2.85,1.25-2.1,3.07-2.11,4.5c-0.1,19.83-0.16,39.66-0.23,59.5
				c0,0.98-0.14,2.03,0.15,2.92c0.22,0.69,1.02,1.19,2.19,2.45C334.36,165.96,334.36,143.42,334.36,120.13z M490.96,129.59
				c-0.68-3.32-1.25-6.12-1.79-8.77c-4.03,0-7.52,0-11.28,0c-0.43,2.95-0.82,5.62-1.26,8.57
				C481.39,130.13,485.86,129.83,490.96,129.59z M231.97,205.5c-2.5,0-4.55,0-6.88,0c0,4.93,0,9.58,0,14.73
				c2.49-0.52,4.76,0.6,6.88-0.9C231.97,214.83,231.97,210.42,231.97,205.5z M151.52,202.9c0-6.73,0-12.82,0-19.04
				c-0.99-0.12-1.62-0.27-2.23-0.25c-0.63,0.02-1.25,0.2-1.83,0.3c-1.03,5.2-0.91,17.58,0.27,18.99
				C148.85,202.9,150.08,202.9,151.52,202.9z M144.23,172.05c0.88-1.87,0.74-3.23-0.49-4.32c-2.51-2.22-5.08-4.38-8.15-7.01
				c0,1.97,0,3.18,0,4.36c2.45,2.12,4.76,4.14,7.1,6.13C143.04,171.5,143.51,171.66,144.23,172.05z M341.98,112.64
				c-1.97,0.13-3.49,0.22-5.03,0.32c0,1.96,0,3.49,0,5.28c1.77,0,3.27,0,5.03,0C341.98,116.43,341.98,114.9,341.98,112.64z"/>
			<path class="st1" d="M441.99,179.24c-3.17,0-5.72,0-8.8,0c-0.05,3.55-0.11,6.93-0.14,10.31c-0.02,3.61-0.01,7.22-0.01,10.83
				c0,3.45,0.09,6.9-0.02,10.34c-0.11,3.33,0.53,6.73-1.31,10.1c-0.17-1.15-0.5-2.3-0.5-3.45c-0.04-11.16,0-22.32-0.05-33.48
				c-0.01-1.9-0.33-3.81-1.12-5.73c1.04-2.75,2.09-5.5,3.13-8.24c1.39-0.33,2.62-0.63,3.94-0.94c0-7.86,0-15.52,0-23.13
				c-3.78-0.9-16.24-1.02-21.65-0.15c0,30.57,0,61.23,0,92c-0.96-0.13-1.15-0.11-1.28-0.19c-0.13-0.08-0.2-0.25-0.28-0.39
				c-0.08-0.14-0.19-0.29-0.19-0.44c-0.01-25.26-0.01-50.53-0.01-76.19c-4.11-0.71-7.93-0.33-11.67-0.29
				c-0.9,4.09-1.23,49.47-0.48,59.55c1.87,0.35,3.81,0.71,5.76,1.07c-4.05,1.93-8.2,1.11-12.27,1.27c-4.1,0.16-8.21,0.15-12.31,0
				c-4.12-0.15-8.32,0.62-12.48-1.3c1.8-0.28,3.59-0.57,5.71-0.9c0.65-6.17,0.2-12.37,0.29-18.53c0.08-6.24,0.03-12.47,0.01-18.71
				c-0.02-6.07-0.09-12.14-0.11-18.21c-0.02-6.21,0-12.42,0-18.82c1.86-0.31,3.25-0.55,5.03-0.85c0-3.07,0-6.12,0-9.52
				c2.21-0.3,4.09-0.55,6.3-0.86c0-3,0-6.01,0-9.32c-10.7,0-21.26,0-32.39,0c0,8.2,0,16.19,0,24.18c0,8.04,0,16.08,0,24.12
				c0,7.88,0,15.75,0,23.63c0,7.92,0.01,15.84-0.01,23.71c-1,0-1.18,0.05-1.29-0.01c-0.13-0.08-0.27-0.26-0.27-0.39
				c-0.01-31.98-0.01-63.96-0.01-96.31c0.93-0.36,2.07-0.81,3.46-1.36c0-4.89,0-9.78,0-14.74c0.89-0.65,1.63-1.19,2.59-1.89
				c0-4.92,0.16-9.99-0.05-15.05c-0.16-3.91,0.43-7.47,2.75-10.7c0.66-0.92,1.08-2.02,1.58-2.98c0.15-1.85,0.29-3.62,0.46-5.85
				c2.81,2.44,0.58,5.67,2.23,8.02c1.57,2.25,2.66,4.84,4.12,7.58c0.32,0.03,0.93,0.09,1.55,0.14c1.68-3.29,3.3-6.46,4.87-9.54
				c0.13-2.02,0.26-3.92,0.38-5.81c2.17,1.62,1.21,3.79,1.86,6.19c0.43,0.79,1.04,2.15,1.88,3.35c1.58,2.27,2.01,4.75,1.97,7.46
				c-0.09,5.73-0.03,11.46-0.03,17.2c0.91,0.6,1.7,1.11,2.7,1.77c0,4.82,0,9.72,0,14.78c1.31,0.53,2.46,1,4,1.62
				c0,3.37,0,6.75,0,10.27c2.16,0.22,3.9,0.4,6.11,0.63c0,3.22,0,6.27,0,9.49c1.8,0.41,3.17,0.72,4.81,1.09
				c0.28,4.04,0.56,7.92,0.86,12.18c3.84,0,7.66,0,11.91,0c0-4.63,0-9.16,0-13.55c3.66-1.17,16.31-1.45,24.92-0.67
				c1.3,2.54,0.47,5.36,0.61,8.07c0.15,2.95,0.03,5.91,0.03,8.86c0,2.77,0,5.54,0,8.86c8.34,0,16.32,0,24.58,0
				c1.17,3.1,2.2,5.82,3.01,7.95c-0.37,2.59-0.89,4.6-0.9,6.62c-0.08,10.67-0.04,21.33-0.04,32c0,1.59,0,3.18,0,4.96
				c-2.55-0.61-1.88-2.19-1.89-3.32c-0.05-11.65-0.03-23.3-0.02-34.96c0-0.96,0-1.93,0-3.28c-2.92,0-5.59,0-8.53,0
				c-0.79,4.81-0.28,9.54-0.37,14.24c-0.09,4.59-0.02,9.19-0.02,13.78c0,4.72,0,9.44,0,14.43c-4.33,0-8.21,0-12.34,0
				c-1.16-3.41-0.36-7.02-0.51-10.54c-0.14-3.44-0.03-6.89-0.03-10.34c0-3.61,0-7.22,0-10.83
				C441.99,186.69,441.99,183.25,441.99,179.24z M399.3,220.09c0-24.57,0-48.55,0-72.7c-3.25,0-6.22,0-9.17,0
				c-0.82,8.66-0.54,68.79,0.35,72.52c0.73,0.06,1.53,0.16,2.32,0.17C394.76,220.11,396.72,220.09,399.3,220.09z M378.52,147.24
				c-0.92,9.03-0.58,69.14,0.32,72.45c2.88,0,5.72,0,8.52,0c0.84-10.26,0.49-68.85-0.43-72.45
				C384.22,147.24,381.48,147.24,378.52,147.24z M444.55,179.7c-0.99,5.32-0.81,36.82,0.18,40.14c2.57,0,5.13,0,7.64,0
				c0.99-5.31,0.81-36.8-0.19-40.14C449.62,179.7,447.06,179.7,444.55,179.7z M359.35,122.58c7.59,0.75,20.8,0.5,24.26-0.41
				c0-4.29,0-8.6,0-13.12c-8.2,0-16.1,0-24.26,0C359.35,113.62,359.35,117.94,359.35,122.58z M361.48,106.34
				c2.52,0.45,4.39,0.93,6.36-0.55c0-6.16,0.01-12.37-0.01-18.58c-0.01-2.72-1.38-4.77-3.62-7.24c-1.08,2.7-2.52,4.75-2.62,6.86
				C361.27,93.18,361.48,99.55,361.48,106.34z M380.81,84.51c-0.68-1.09-1.56-2.52-2.52-4.07c-3.26,4.28-3.27,4.28-3.29,8.23
				c-0.02,4.9-0.03,9.79,0.02,14.69c0.01,1.07,0.29,2.13,0.44,3.18c1.91,0,3.49,0,5.35,0C380.81,99.33,380.81,92.37,380.81,84.51z
				 M432.36,177.24c3.53,0,6.24,0,8.93,0c1.86-1.8,4.07-3.11,5.36-5.71c-4.31,0-8.14,0-12.14,0
				C433.83,173.33,433.23,174.94,432.36,177.24z M462.31,171.63c-4.15,0-7.81,0-12.01,0c2.14,2.15,3.81,3.84,5.6,5.65
				c2.71-0.02,5.61,0.87,8.44-0.77C463.62,174.78,463,173.28,462.31,171.63z M372.97,106.74c0.08-6.13,0.25-11.71-0.12-17.6
				c-1.28,0.23-1.99,0.36-2.68,0.48c0,5.76,0,11.22,0,16.85C371.04,106.56,371.64,106.61,372.97,106.74z M394.33,137.05
				c-1.43-0.13-2.71-0.24-4.3-0.38c0,2.88,0,5.24,0,7.93c1.43,0,2.76,0,4.3,0C394.33,142.02,394.33,139.8,394.33,137.05z
				 M383.51,136.88c0,2.98,0,5.33,0,8.1c1.6-0.19,2.77-0.32,3.78-0.44c0-2.78,0-5.14,0-7.66
				C385.88,136.88,384.82,136.88,383.51,136.88z"/>
			<path class="st1" d="M159.5,221.89c-5.64,0-10.95,0-16.74,0c0.57-0.61,0.9-1.29,1.25-1.3c4.84-0.09,9.69-0.1,14.54-0.05
				C158.79,220.54,159.03,221.21,159.5,221.89z"/>
			<path class="st1" d="M294.13,127.9c-0.57,0.51-0.92,1.09-1.27,1.1c-8.5,0.1-17,0.16-25.5,0.17c-0.55,0-1.11-0.41-2.16-0.83
				c0.83-0.69,1.25-1.36,1.68-1.36c8.5-0.06,17-0.06,25.51-0.01C292.91,126.96,293.44,127.51,294.13,127.9z"/>
			<path class="st1" d="M268.93,66.58c3.67-2.23,18.43-2.18,21.62-0.7c-0.15,0.26-0.29,0.76-0.45,0.76
				c-6,0.18-11.99,0.35-17.99,0.44C271.05,67.09,269.99,66.76,268.93,66.58z"/>
			<path class="st1" d="M264.89,143.05c0.56-0.19,1.13-0.54,1.69-0.54c9,0.04,18.01,0.13,27.01,0.24c0.17,0,0.34,0.45,0.71,0.97
				c-0.56,0.27-1.05,0.66-1.58,0.72C287.41,145.02,267.67,144.52,264.89,143.05z"/>
			<path class="st1" d="M294.67,135.54c-4.44,1.51-25.78,1.48-29.71,0.08c0.76-0.42,1.24-0.89,1.76-0.95
				C271.4,134.11,291.25,134.63,294.67,135.54z"/>
			<path class="st1" d="M293.74,120.62c-3.28,0.75-24.21,1.19-26.66,0.65c-0.36-0.08-0.6-0.66-0.94-1.04
				C270.2,118.97,289.75,119.07,293.74,120.62z"/>
			<path class="st1" d="M266.29,112.32c4.34-1.02,22.64-1.02,26.99,0c-2.92,2.34-6.02,1.01-8.82,1.23c-3.08,0.24-6.21,0.23-9.29,0
				C272.34,113.34,269.24,114.63,266.29,112.32z"/>
			<path class="st1" d="M266.91,104.24c0.74-0.18,1.49-0.53,2.23-0.52c7.48,0.06,14.97,0.17,22.45,0.31c0.16,0,0.31,0.47,0.79,1.24
				c-2.91,0.98-5.78,0.43-8.55,0.53c-2.77,0.09-5.55,0.06-8.32,0.01c-2.84-0.05-5.73,0.25-8.53-0.27
				C266.96,105.11,266.93,104.67,266.91,104.24z"/>
			<path class="st1" d="M266.91,96.77c5.51-1.29,22.1-1.08,25.76,0.39c-1.12,0.41-1.76,0.83-2.43,0.87
				C280.26,98.69,270.41,98.25,266.91,96.77z"/>
			<path class="st1" d="M267.04,81.37c4.9-1.34,20.53-1.29,24.69-0.01c-2.77,1.71-5.37,0.84-7.76,0.97
				c-2.78,0.15-5.58,0.12-8.37,0.01C273.07,82.25,270.45,82.9,267.04,81.37z"/>
			<path class="st1" d="M291.73,88.92c-3.3,1.62-19.17,1.86-24.27,0.47c2.7-2.01,5.49-0.95,8.02-1.14c2.61-0.19,5.25-0.13,7.87-0.02
				C285.99,88.36,288.74,87.67,291.73,88.92z"/>
			<path class="st1" d="M268.68,73.24c0.53-0.22,1.05-0.64,1.58-0.63c6.64,0.05,13.29,0.15,19.93,0.28c0.15,0,0.3,0.5,0.45,0.77
				C287.65,74.85,273.71,75.05,268.68,73.24z"/>
			<path class="st1" d="M269.87,59.01c2.83-1.97,14.4-2.22,20.09-1.11c-0.23,0.41-0.42,1.07-0.62,1.07
				C282.85,59.02,276.36,59.01,269.87,59.01z"/>
			<path class="st1" d="M290.22,50.2c-3.84,1.62-16.58,1.7-20.33,0.4C272.38,49.18,283.87,48.86,290.22,50.2z"/>
		</g>
		<rect y="278.49" class="st1" width="607.18" height="37.84"/>
	</g>
	<g>
		<path class="st2" d="M32.81,292.59c-0.14-0.15-0.41-0.34-0.79-0.59c-0.38-0.25-0.85-0.49-1.39-0.73c-0.55-0.24-1.14-0.44-1.78-0.6
			s-1.29-0.25-1.95-0.25c-1.18,0-2.06,0.22-2.63,0.65c-0.58,0.43-0.87,1.04-0.87,1.83c0,0.45,0.11,0.83,0.33,1.13
			c0.22,0.3,0.53,0.56,0.95,0.79c0.41,0.23,0.93,0.43,1.57,0.62c0.63,0.19,1.36,0.38,2.18,0.59c1.07,0.29,2.05,0.6,2.93,0.93
			c0.88,0.33,1.62,0.74,2.23,1.24c0.61,0.5,1.08,1.09,1.41,1.78c0.33,0.69,0.5,1.54,0.5,2.56c0,1.18-0.22,2.19-0.67,3.02
			c-0.44,0.84-1.04,1.51-1.8,2.03c-0.75,0.52-1.62,0.89-2.6,1.13c-0.98,0.24-2.01,0.36-3.08,0.36c-1.65,0-3.29-0.25-4.9-0.74
			c-1.61-0.5-3.06-1.2-4.34-2.11l1.89-3.69c0.19,0.19,0.52,0.43,1.01,0.73c0.49,0.3,1.06,0.6,1.72,0.9c0.66,0.3,1.39,0.55,2.2,0.76
			c0.81,0.21,1.63,0.31,2.48,0.31c2.36,0,3.53-0.75,3.53-2.26c0-0.48-0.13-0.88-0.4-1.21c-0.27-0.33-0.65-0.62-1.15-0.87
			c-0.5-0.25-1.1-0.48-1.8-0.68c-0.7-0.21-1.49-0.43-2.36-0.68c-1.05-0.29-1.97-0.6-2.74-0.95c-0.77-0.34-1.42-0.74-1.94-1.21
			c-0.52-0.46-0.9-1-1.16-1.61c-0.26-0.61-0.39-1.34-0.39-2.18c0-1.12,0.21-2.11,0.62-2.98c0.41-0.87,0.99-1.59,1.72-2.17
			c0.73-0.58,1.59-1.02,2.56-1.32c0.97-0.3,2.01-0.45,3.13-0.45c1.55,0,2.98,0.24,4.28,0.73c1.3,0.49,2.44,1.06,3.41,1.72
			L32.81,292.59z"/>
		<path class="st2" d="M41.8,308.83v-22.01h4.28v22.01H41.8z"/>
		<path class="st2" d="M71.7,308.83v-14.57l-5.67,10.85h-2.32l-5.67-10.85v14.57h-4.28v-22.01h4.59l6.51,12.52l6.57-12.52h4.56
			v22.01H71.7z"/>
		<path class="st2" d="M83.67,308.83v-22.01H93c1.01,0,1.95,0.21,2.81,0.63c0.86,0.42,1.6,0.98,2.22,1.67s1.11,1.48,1.46,2.36
			c0.35,0.88,0.53,1.76,0.53,2.65c0,0.93-0.17,1.83-0.5,2.71c-0.33,0.88-0.8,1.66-1.39,2.34c-0.6,0.68-1.32,1.23-2.17,1.64
			c-0.85,0.41-1.78,0.62-2.79,0.62h-5.21v7.38H83.67z M87.95,297.71h4.96c0.78,0,1.44-0.32,1.97-0.96c0.53-0.64,0.79-1.51,0.79-2.6
			c0-0.56-0.08-1.06-0.25-1.5s-0.38-0.82-0.65-1.13c-0.27-0.31-0.58-0.54-0.95-0.7c-0.36-0.16-0.73-0.23-1.1-0.23h-4.77V297.71z"/>
		<path class="st2" d="M106.08,308.83v-22.01h4.28v18.26h11.22v3.75H106.08z"/>
		<path class="st2" d="M142.56,305.08v3.75h-15.28v-22.01h15v3.75h-10.72v5.3h9.27v3.47h-9.27v5.73H142.56z"/>
		<path class="st2" d="M148.51,308.83v-4.46h3.41v4.46H148.51z"/>
		<path class="st2" d="M182.72,292.59c-0.14-0.15-0.41-0.34-0.79-0.59c-0.38-0.25-0.85-0.49-1.39-0.73
			c-0.55-0.24-1.14-0.44-1.78-0.6s-1.29-0.25-1.95-0.25c-1.18,0-2.06,0.22-2.63,0.65c-0.58,0.43-0.87,1.04-0.87,1.83
			c0,0.45,0.11,0.83,0.33,1.13c0.22,0.3,0.53,0.56,0.95,0.79c0.41,0.23,0.93,0.43,1.57,0.62c0.63,0.19,1.36,0.38,2.18,0.59
			c1.07,0.29,2.05,0.6,2.93,0.93c0.88,0.33,1.62,0.74,2.23,1.24c0.61,0.5,1.08,1.09,1.41,1.78c0.33,0.69,0.5,1.54,0.5,2.56
			c0,1.18-0.22,2.19-0.67,3.02c-0.44,0.84-1.04,1.51-1.8,2.03c-0.75,0.52-1.62,0.89-2.6,1.13c-0.98,0.24-2.01,0.36-3.08,0.36
			c-1.65,0-3.29-0.25-4.9-0.74c-1.61-0.5-3.06-1.2-4.34-2.11l1.89-3.69c0.19,0.19,0.52,0.43,1.01,0.73c0.49,0.3,1.06,0.6,1.72,0.9
			c0.66,0.3,1.39,0.55,2.2,0.76c0.81,0.21,1.63,0.31,2.48,0.31c2.36,0,3.53-0.75,3.53-2.26c0-0.48-0.13-0.88-0.4-1.21
			c-0.27-0.33-0.65-0.62-1.15-0.87c-0.5-0.25-1.1-0.48-1.8-0.68c-0.7-0.21-1.49-0.43-2.36-0.68c-1.05-0.29-1.97-0.6-2.74-0.95
			c-0.77-0.34-1.42-0.74-1.94-1.21c-0.52-0.46-0.9-1-1.16-1.61c-0.26-0.61-0.39-1.34-0.39-2.18c0-1.12,0.21-2.11,0.62-2.98
			c0.41-0.87,0.99-1.59,1.72-2.17c0.73-0.58,1.59-1.02,2.56-1.32c0.97-0.3,2.01-0.45,3.13-0.45c1.55,0,2.98,0.24,4.28,0.73
			c1.3,0.49,2.44,1.06,3.41,1.72L182.72,292.59z"/>
		<path class="st2" d="M206.99,305.08v3.75h-15.28v-22.01h15v3.75h-10.72v5.3h9.27v3.47h-9.27v5.73H206.99z"/>
		<path class="st2" d="M211.64,297.68c0-1.34,0.24-2.67,0.73-3.98c0.49-1.31,1.19-2.48,2.12-3.52c0.93-1.03,2.07-1.87,3.41-2.51
			c1.34-0.64,2.87-0.96,4.59-0.96c2.02,0,3.78,0.44,5.25,1.33c1.48,0.89,2.58,2.04,3.3,3.47l-3.29,2.26
			c-0.29-0.62-0.64-1.14-1.05-1.56c-0.41-0.42-0.86-0.76-1.33-1.01c-0.48-0.25-0.97-0.43-1.49-0.54c-0.52-0.11-1.02-0.17-1.52-0.17
			c-1.07,0-2.01,0.22-2.81,0.65c-0.8,0.43-1.46,1-1.98,1.69c-0.53,0.69-0.93,1.48-1.19,2.36c-0.27,0.88-0.4,1.75-0.4,2.62
			c0,0.97,0.15,1.91,0.46,2.8c0.31,0.9,0.75,1.69,1.32,2.37c0.57,0.68,1.25,1.23,2.05,1.64c0.8,0.41,1.67,0.62,2.62,0.62
			c0.5,0,1.01-0.06,1.55-0.19c0.54-0.12,1.05-0.32,1.53-0.59c0.49-0.27,0.93-0.61,1.35-1.04c0.41-0.42,0.74-0.93,0.99-1.53l3.5,2.01
			c-0.35,0.83-0.85,1.56-1.5,2.19c-0.65,0.63-1.38,1.16-2.2,1.6c-0.82,0.43-1.69,0.76-2.62,0.99c-0.93,0.23-1.84,0.34-2.73,0.34
			c-1.57,0-3.01-0.33-4.31-0.99c-1.3-0.66-2.42-1.52-3.36-2.59c-0.94-1.06-1.67-2.27-2.2-3.63
			C211.91,300.46,211.64,299.08,211.64,297.68z"/>
		<path class="st2" d="M246.63,305.21c1.01,0,1.86-0.21,2.56-0.62c0.69-0.41,1.25-0.95,1.67-1.61c0.42-0.66,0.72-1.42,0.9-2.28
			c0.18-0.86,0.26-1.74,0.26-2.65v-11.22h4.25v11.22c0,1.51-0.18,2.92-0.54,4.25c-0.36,1.32-0.93,2.48-1.71,3.47
			c-0.77,0.99-1.77,1.78-2.99,2.36c-1.22,0.58-2.68,0.87-4.37,0.87c-1.76,0-3.25-0.3-4.48-0.91c-1.23-0.61-2.23-1.42-2.99-2.42
			c-0.76-1-1.32-2.16-1.66-3.49c-0.34-1.32-0.51-2.7-0.51-4.12v-11.22h4.28v11.22c0,0.93,0.09,1.82,0.26,2.68
			c0.18,0.86,0.48,1.62,0.9,2.28c0.42,0.66,0.98,1.19,1.66,1.6C244.81,305.01,245.64,305.21,246.63,305.21z"/>
		<path class="st2" d="M263.68,308.83v-22.01h9.73c1.01,0,1.95,0.21,2.8,0.63c0.86,0.42,1.6,0.98,2.22,1.67
			c0.62,0.69,1.11,1.48,1.46,2.36c0.35,0.88,0.53,1.76,0.53,2.65c0,1.43-0.36,2.72-1.07,3.89c-0.71,1.17-1.68,2.01-2.9,2.53
			l5.02,8.28h-4.8l-4.49-7.38h-4.21v7.38H263.68z M267.96,297.71h5.36c0.39,0,0.76-0.09,1.1-0.28c0.34-0.19,0.64-0.44,0.88-0.76
			c0.25-0.32,0.44-0.7,0.59-1.13c0.14-0.43,0.22-0.9,0.22-1.39c0-0.52-0.08-0.99-0.25-1.43c-0.17-0.43-0.39-0.81-0.67-1.13
			c-0.28-0.32-0.6-0.57-0.96-0.74c-0.36-0.18-0.73-0.26-1.1-0.26h-5.18V297.71z"/>
		<path class="st2" d="M302.67,305.08v3.75h-15.28v-22.01h15v3.75h-10.72v5.3h9.27v3.47h-9.27v5.73H302.67z"/>
		<path class="st2" d="M308.62,308.83v-4.46h3.41v4.46H308.62z"/>
		<path class="st2" d="M345.32,290.58h-7.04v18.26h-4.25v-18.26H327v-3.75h18.32V290.58z"/>
		<path class="st2" d="M351.15,308.83v-22.01h9.73c1.01,0,1.95,0.21,2.8,0.63c0.86,0.42,1.6,0.98,2.22,1.67
			c0.62,0.69,1.11,1.48,1.46,2.36c0.35,0.88,0.53,1.76,0.53,2.65c0,1.43-0.36,2.72-1.07,3.89c-0.71,1.17-1.68,2.01-2.9,2.53
			l5.02,8.28h-4.8l-4.49-7.38h-4.21v7.38H351.15z M355.42,297.71h5.36c0.39,0,0.76-0.09,1.1-0.28c0.34-0.19,0.64-0.44,0.88-0.76
			c0.25-0.32,0.44-0.7,0.59-1.13c0.14-0.43,0.22-0.9,0.22-1.39c0-0.52-0.08-0.99-0.25-1.43c-0.17-0.43-0.39-0.81-0.67-1.13
			c-0.28-0.32-0.6-0.57-0.96-0.74c-0.36-0.18-0.73-0.26-1.1-0.26h-5.18V297.71z"/>
		<path class="st2" d="M380.78,286.83h3.78l8.37,22.01h-4.4l-2.05-5.49h-7.69l-2.02,5.49h-4.4L380.78,286.83z M385.7,300.34
			l-3.04-8.65l-3.16,8.65H385.7z"/>
		<path class="st2" d="M402.72,294.73v14.1h-4.28v-22.01h3.32l11.47,14.44v-14.41h4.28v21.97h-3.47L402.72,294.73z"/>
		<path class="st2" d="M438.3,292.59c-0.14-0.15-0.41-0.34-0.79-0.59c-0.38-0.25-0.85-0.49-1.39-0.73c-0.55-0.24-1.14-0.44-1.78-0.6
			c-0.64-0.17-1.29-0.25-1.95-0.25c-1.18,0-2.06,0.22-2.63,0.65c-0.58,0.43-0.87,1.04-0.87,1.83c0,0.45,0.11,0.83,0.33,1.13
			c0.22,0.3,0.53,0.56,0.94,0.79c0.41,0.23,0.93,0.43,1.57,0.62c0.63,0.19,1.36,0.38,2.19,0.59c1.07,0.29,2.05,0.6,2.93,0.93
			c0.88,0.33,1.62,0.74,2.23,1.24c0.61,0.5,1.08,1.09,1.41,1.78c0.33,0.69,0.5,1.54,0.5,2.56c0,1.18-0.22,2.19-0.67,3.02
			s-1.04,1.51-1.8,2.03c-0.76,0.52-1.62,0.89-2.6,1.13c-0.98,0.24-2.01,0.36-3.08,0.36c-1.65,0-3.29-0.25-4.9-0.74
			c-1.61-0.5-3.06-1.2-4.34-2.11l1.89-3.69c0.19,0.19,0.52,0.43,1.01,0.73c0.48,0.3,1.06,0.6,1.72,0.9c0.66,0.3,1.39,0.55,2.2,0.76
			c0.81,0.21,1.63,0.31,2.48,0.31c2.36,0,3.53-0.75,3.53-2.26c0-0.48-0.13-0.88-0.4-1.21c-0.27-0.33-0.65-0.62-1.15-0.87
			c-0.5-0.25-1.1-0.48-1.8-0.68c-0.7-0.21-1.49-0.43-2.36-0.68c-1.05-0.29-1.97-0.6-2.74-0.95c-0.78-0.34-1.42-0.74-1.94-1.21
			c-0.52-0.46-0.9-1-1.16-1.61c-0.26-0.61-0.39-1.34-0.39-2.18c0-1.12,0.21-2.11,0.62-2.98c0.41-0.87,0.99-1.59,1.72-2.17
			c0.73-0.58,1.59-1.02,2.56-1.32c0.97-0.3,2.01-0.45,3.13-0.45c1.55,0,2.97,0.24,4.28,0.73c1.3,0.49,2.44,1.06,3.41,1.72
			L438.3,292.59z"/>
		<path class="st2" d="M447.29,308.83v-22.01h9.33c1.01,0,1.95,0.21,2.8,0.63c0.86,0.42,1.6,0.98,2.22,1.67
			c0.62,0.69,1.11,1.48,1.46,2.36c0.35,0.88,0.53,1.76,0.53,2.65c0,0.93-0.17,1.83-0.5,2.71c-0.33,0.88-0.8,1.66-1.39,2.34
			c-0.6,0.68-1.32,1.23-2.17,1.64c-0.85,0.41-1.78,0.62-2.79,0.62h-5.21v7.38H447.29z M451.57,297.71h4.96
			c0.79,0,1.44-0.32,1.97-0.96c0.53-0.64,0.79-1.51,0.79-2.6c0-0.56-0.08-1.06-0.25-1.5c-0.17-0.44-0.38-0.82-0.65-1.13
			c-0.27-0.31-0.58-0.54-0.95-0.7c-0.36-0.16-0.73-0.23-1.1-0.23h-4.77V297.71z"/>
		<path class="st2" d="M474.56,286.83h3.78l8.37,22.01h-4.4l-2.05-5.49h-7.69l-2.02,5.49h-4.4L474.56,286.83z M479.49,300.34
			l-3.04-8.65l-3.16,8.65H479.49z"/>
		<path class="st2" d="M492.23,308.83v-22.01h9.73c1.01,0,1.95,0.21,2.8,0.63c0.86,0.42,1.6,0.98,2.22,1.67
			c0.62,0.69,1.11,1.48,1.46,2.36c0.35,0.88,0.53,1.76,0.53,2.65c0,1.43-0.36,2.72-1.07,3.89c-0.71,1.17-1.68,2.01-2.9,2.53
			l5.02,8.28h-4.8l-4.49-7.38h-4.21v7.38H492.23z M496.51,297.71h5.36c0.39,0,0.76-0.09,1.1-0.28c0.34-0.19,0.64-0.44,0.88-0.76
			c0.25-0.32,0.44-0.7,0.59-1.13c0.14-0.43,0.22-0.9,0.22-1.39c0-0.52-0.08-0.99-0.25-1.43c-0.17-0.43-0.39-0.81-0.67-1.13
			c-0.28-0.32-0.6-0.57-0.96-0.74c-0.36-0.18-0.73-0.26-1.1-0.26h-5.18V297.71z"/>
		<path class="st2" d="M531.22,305.08v3.75h-15.28v-22.01h15v3.75h-10.72v5.3h9.27v3.47h-9.27v5.73H531.22z"/>
		<path class="st2" d="M541.95,294.73v14.1h-4.28v-22.01h3.32l11.47,14.44v-14.41h4.28v21.97h-3.47L541.95,294.73z"/>
		<path class="st2" d="M580.87,290.58h-7.04v18.26h-4.25v-18.26h-7.04v-3.75h18.32V290.58z"/>
		<path class="st2" d="M583.97,308.83v-4.46h3.41v4.46H583.97z"/>
	</g>
	<g>
		<path class="st1" d="M75.88,251.79c0,4.26-2.81,6.4-8.44,6.4h-36.9V188.2H67.2c5.47,0,8.21,2.15,8.21,6.44v18.02
			c0,2.39-0.98,4.23-2.95,5.54c-0.28,0.18-2.68,1.33-7.2,3.44c4.68,2.18,7.16,3.37,7.44,3.58c2.13,1.4,3.19,3.33,3.19,5.77V251.79z
			 M61.65,213.96v-16.95h-17.3v20.53h10.63L61.65,213.96z M62.01,249.38v-19.95l-6.79-3.4H44.35v23.35H62.01z"/>
		<path class="st1" d="M99.79,206.53H86.27v-10.55h13.52V206.53z M99.68,258.19H86.39v-45.17h13.29V258.19z"/>
		<path class="st1" d="M149.27,258.19h-13.46v-1.56c-9.13,1.22-14.25,1.83-15.35,1.83c-3.39,0-6.04-0.75-7.97-2.26
			c-1.93-1.51-2.89-3.56-2.89-6.15V222.1c0-3.67,1.73-6.22,5.2-7.65c2.52-1.07,6.34-1.61,11.45-1.61c1.14,0,2.79,0.03,4.96,0.09
			c2.16,0.06,3.7,0.09,4.61,0.09V188.2h13.46V258.19z M135.81,249.38v-27.82h-8.33c-2.99,0-4.49,1.13-4.49,3.4v21.6
			c0,2.21,1.42,3.31,4.25,3.31C127.92,249.87,130.77,249.71,135.81,249.38z"/>
		<path class="st3" d="M205.25,251.79c0,4.26-2.81,6.4-8.44,6.4h-28.81c-5.47,0-8.21-2.13-8.21-6.4v-57.16
			c0-4.29,2.74-6.44,8.21-6.44h28.81c5.63,0,8.44,2.15,8.44,6.44v16.37h-13.76v-13.82H173.6v52.01h17.89v-14.71h13.76V251.79z"/>
		<path class="st3" d="M262.35,251.79c0,4.26-2.83,6.4-8.5,6.4H224.5c-5.59,0-8.38-2.13-8.38-6.4v-63.6h13.82v61h18.6v-61h13.82
			V251.79z"/>
		<path class="st3" d="M320.74,258.19h-14.41l-15.23-32.51v-6.31h13.58v-22.18h-17.42v61h-13.82V188.2h36.67
			c5.55,0,8.33,2.15,8.33,6.44v25.45c0,2.95-1.32,4.86-3.96,5.72c-1.42,0.45-4.41,0.67-8.97,0.67L320.74,258.19z"/>
		<path class="st3" d="M367.51,258.19h-38.32V188.2h37.97v9.26H343v20.44h20.78v9.08H343v21.96h24.5V258.19z"/>
		<path class="st1" d="M442.02,258.19h-13.4v-36.63l-12.69,0.18v36.45h-13.46v-36.63l-12.69,0.18v36.45h-13.52v-45.17h13.52v1.65
			c3.15-0.39,6.28-0.78,9.39-1.16c3.82-0.45,6.99-0.67,9.51-0.67c3.11,0,5.12,0.67,6.02,2.01c3.31-0.39,6.61-0.79,9.92-1.21
			c4.37-0.54,7.71-0.81,10.04-0.81c4.92,0,7.38,1.83,7.38,5.5V258.19z"/>
		<path class="st1" d="M490.26,252.6c0,3.73-2.54,5.59-7.62,5.59h-23.32c-5.08,0-7.62-1.86-7.62-5.59v-33.99
			c0-3.73,2.54-5.59,7.62-5.59h23.32c5.08,0,7.62,1.86,7.62,5.59v16.59l-3.72,2.82h-21.91v12.66h12.69v-7.51h12.93V252.6z
			 M477.33,231.36v-10.82h-12.69v10.82H477.33z"/>
		<path class="st1" d="M539.86,258.19h-13.58v-36.63l-12.69,0.18v36.45h-13.52v-45.17h13.52v1.65c3.15-0.39,6.28-0.76,9.39-1.12
			c3.86-0.48,7.03-0.72,9.51-0.72c4.92,0,7.38,1.83,7.38,5.5V258.19z"/>
		<path class="st1" d="M575.29,258.19h-15c-5,0-7.5-1.86-7.5-5.59v-30.86h-6.38v-8.72h6.38v-12.25h13.46v12.25h8.68v8.72h-8.68
			v27.73h9.03V258.19z"/>
	</g>
</g>
</svg>
